<svg width="389" height="559" viewBox="0 0 389 559" fill="none" xmlns="http://www.w3.org/2000/svg">
<g clip-path="url(#clip0_10_3)">
<rect x="-6.0661" y="83.2812" width="112.972" height="565.483" rx="20" transform="rotate(-32.8126 -6.0661 83.2812)" fill="#D5B9B2"/>
<rect x="49.1187" y="168.522" width="112.912" height="22.829" transform="rotate(-32.8126 49.1187 168.522)" fill="#A26769"/>
<path d="M21.6792 110.828L15.352 101.062L17.1211 99.9156L19.7997 104.05L24.325 101.118L21.6464 96.9838L23.4203 95.8345L29.7475 105.6L27.9736 106.75L25.2858 102.601L20.7605 105.533L23.4483 109.681L21.6792 110.828ZM34.8828 102.476C34.1675 102.94 33.4457 103.184 32.7172 103.209C31.9888 103.234 31.2966 103.058 30.6407 102.679C29.988 102.299 29.4166 101.73 28.9264 100.974C28.4362 100.217 28.1498 99.4614 28.0672 98.707C27.9879 97.9506 28.1085 97.245 28.4291 96.5905C28.7498 95.9359 29.2677 95.3769 29.983 94.9135C30.6983 94.4501 31.4201 94.2058 32.1485 94.1807C32.877 94.1556 33.5686 94.3349 34.2234 94.7186C34.8813 95.1002 35.4554 95.6693 35.9456 96.4259C36.4358 97.1825 36.7195 97.9374 36.7969 98.6907C36.8774 99.4419 36.7573 100.145 36.4367 100.799C36.116 101.454 35.5981 102.013 34.8828 102.476ZM33.9964 101.087C34.3843 100.836 34.6395 100.519 34.7622 100.138C34.8828 99.7525 34.8893 99.3376 34.7817 98.8928C34.6772 98.446 34.4808 98 34.1925 97.5549C33.9021 97.1067 33.5743 96.7436 33.2092 96.4656C32.8451 96.1824 32.4628 96.0172 32.062 95.9699C31.6613 95.9226 31.267 96.0246 30.8792 96.2759C30.4818 96.5334 30.2212 96.8556 30.0974 97.2428C29.9768 97.6278 29.9697 98.0454 30.0763 98.4954C30.1839 98.9402 30.3829 99.3867 30.6733 99.8349C30.9617 100.28 31.2868 100.643 31.6488 100.923C32.0139 101.201 32.3968 101.363 32.7976 101.41C33.1994 101.452 33.599 101.345 33.9964 101.087ZM41.0667 98.2668L34.2518 92.2832L36.0113 91.1433L40.6354 95.4591L40.7022 95.4158L38.6817 89.4132L40.4222 88.2855L45.0563 92.5542L45.1279 92.5079L43.0782 86.5647L44.8426 85.4216L47.5137 94.0899L45.7159 95.2546L41.1358 91.1947L41.0356 91.2596L42.8691 97.099L41.0667 98.2668ZM48.4048 81.753L47.444 80.27L55.2357 75.2218L56.1965 76.7048L53.178 78.6605L58.5444 86.9433L56.7896 88.0802L51.4232 79.7974L48.4048 81.753ZM65.214 82.8253C64.4987 83.2887 63.7769 83.533 63.0484 83.5581C62.32 83.5832 61.6278 83.4065 60.9719 83.0281C60.3192 82.6476 59.7477 82.0791 59.2575 81.3225C58.7674 80.5659 58.481 79.8104 58.3984 79.0559C58.319 78.2995 58.4397 77.594 58.7603 76.9394C59.0809 76.2849 59.5989 75.7259 60.3142 75.2625C61.0294 74.799 61.7513 74.5548 62.4797 74.5297C63.2082 74.5045 63.8998 74.6838 64.5545 75.0675C65.2125 75.4491 65.7866 76.0182 66.2768 76.7748C66.767 77.5314 67.0507 78.2864 67.128 79.0396C67.2085 79.7909 67.0885 80.4938 66.7678 81.1483C66.4472 81.8029 65.9293 82.3619 65.214 82.8253ZM64.3276 81.4362C64.7154 81.185 64.9707 80.8684 65.0934 80.4865C65.214 80.1014 65.2205 79.6865 65.1128 79.2417C65.0084 78.7949 64.812 78.3489 64.5236 77.9039C64.2332 77.4556 63.9055 77.0925 63.5403 76.8146C63.1763 76.5314 62.7939 76.3661 62.3932 76.3188C61.9925 76.2716 61.5982 76.3736 61.2104 76.6248C60.813 76.8823 60.5524 77.2046 60.4286 77.5917C60.308 77.9768 60.3009 78.3943 60.4074 78.8443C60.5151 79.2891 60.7141 79.7356 61.0045 80.1839C61.2928 80.6289 61.618 80.9915 61.98 81.2715C62.3451 81.5494 62.728 81.7121 63.1288 81.7594C63.5306 81.8014 63.9302 81.6937 64.3276 81.4362ZM67.7076 69.247L66.7468 67.764L74.5385 62.7158L75.4993 64.1988L72.4809 66.1545L77.8472 74.4373L76.0924 75.5742L70.7261 67.2914L67.7076 69.247ZM81.5309 72.0507L76.7855 64.7263L78.4592 63.6419L79.2501 64.8627L79.3264 64.8133C79.186 64.3039 79.2038 63.8298 79.3798 63.3908C79.5569 62.9466 79.8552 62.5886 80.2748 62.3167C80.3702 62.2549 80.4798 62.1907 80.6036 62.124C80.7285 62.0521 80.8359 61.9984 80.9256 61.9628L81.9544 63.5507C81.8648 63.5726 81.7344 63.6255 81.5631 63.7095C81.3929 63.7881 81.2347 63.8748 81.0884 63.9696C80.7737 64.1735 80.5351 64.4251 80.3725 64.7245C80.211 65.0187 80.136 65.3313 80.1474 65.6624C80.1588 65.9936 80.2655 66.3149 80.4673 66.6264L83.2571 70.9324L81.5309 72.0507ZM88.9272 67.4686C88.4631 67.7694 87.9915 67.9575 87.5124 68.0332C87.0345 68.1036 86.5814 68.0452 86.1531 67.8578C85.7279 67.6683 85.3599 67.3336 85.0489 66.8536C84.7811 66.4403 84.636 66.0491 84.6135 65.6801C84.5911 65.311 84.6592 64.9599 84.8181 64.6268C84.9769 64.2937 85.1948 63.9788 85.4719 63.6819C85.7501 63.3798 86.0548 63.0944 86.3861 62.8256C86.7865 62.503 87.1088 62.2377 87.3532 62.0298C87.5955 61.8186 87.7524 61.6357 87.8237 61.4812C87.8962 61.3214 87.8789 61.1588 87.7718 60.9935L87.7533 60.9649C87.5206 60.6057 87.2338 60.3965 86.8932 60.3374C86.5525 60.2783 86.1818 60.3785 85.7813 60.638C85.3585 60.912 85.0828 61.2214 84.9543 61.5665C84.829 61.9094 84.8048 62.2343 84.8817 62.541L83.1216 63.3564C82.9604 62.8289 82.9293 62.3211 83.0281 61.8328C83.1249 61.3413 83.3363 60.8839 83.6623 60.4605C83.9863 60.034 84.4042 59.6549 84.916 59.3233C85.2689 59.0947 85.6469 58.9085 86.0501 58.7645C86.4534 58.6206 86.8614 58.5503 87.2743 58.5537C87.6851 58.5538 88.083 58.6594 88.4679 58.8703C88.856 59.0793 89.2076 59.4269 89.5227 59.9133L92.6987 64.8153L91.0392 65.8904L90.3874 64.8843L90.3301 64.9213C90.3571 65.1928 90.3328 65.4793 90.2574 65.7809C90.1831 66.0772 90.0379 66.3721 89.8219 66.6656C89.6069 66.9538 89.3087 67.2215 88.9272 67.4686ZM88.5536 65.9098C88.9002 65.6853 89.1563 65.4223 89.322 65.1209C89.4857 64.8162 89.5618 64.5052 89.5502 64.1877C89.5418 63.8682 89.45 63.5734 89.275 63.3031L88.7158 62.44C88.6906 62.5196 88.6252 62.6206 88.5195 62.7432C88.4171 62.8637 88.2957 62.9898 88.1553 63.1214C88.0148 63.253 87.874 63.3804 87.7326 63.5036C87.5913 63.6267 87.4685 63.7333 87.3644 63.8234C87.1295 64.0252 86.9361 64.2317 86.7841 64.443C86.6322 64.6543 86.5437 64.8696 86.5188 65.0888C86.4918 65.3049 86.5504 65.5242 86.6945 65.7468C86.9005 66.0646 87.172 66.2295 87.5091 66.2413C87.8463 66.253 88.1944 66.1426 88.5536 65.9098ZM94.4344 63.6907L89.689 56.3663L91.4152 55.248L96.1606 62.5724L94.4344 63.6907ZM89.8834 54.7645C89.61 54.9417 89.3161 55.0035 89.0016 54.95C88.685 54.8933 88.4433 54.7362 88.2765 54.4787C88.1076 54.218 88.063 53.9332 88.1427 53.6243C88.2204 53.3123 88.3959 53.0677 88.6693 52.8905C88.9458 52.7113 89.2408 52.6511 89.5542 52.7099C89.8687 52.7634 90.1104 52.9205 90.2793 53.1811C90.4461 53.4386 90.4907 53.7234 90.4131 54.0355C90.3365 54.3423 90.16 54.5854 89.8834 54.7645ZM96.8814 56.0123L99.6619 60.304L97.9357 61.4223L93.1903 54.0979L94.8402 53.029L95.6465 54.2736L95.7324 54.218C95.6352 53.6987 95.6927 53.1988 95.9049 52.7183C96.1203 52.2357 96.5014 51.8173 97.0482 51.4631C97.5537 51.1356 98.064 50.9584 98.5792 50.9315C99.0975 50.9026 99.5929 51.0263 100.065 51.3025C100.541 51.5766 100.966 52.0072 101.342 52.5942L104.364 57.2578L102.637 58.3762L99.7889 53.9796C99.4718 53.4901 99.0964 53.1894 98.6629 53.0776C98.2326 52.9637 97.7949 53.0509 97.3498 53.3393C97.0478 53.535 96.8225 53.7757 96.6737 54.0617C96.5261 54.3424 96.4659 54.6499 96.493 54.9844C96.5233 55.3168 96.6528 55.6595 96.8814 56.0123ZM29.6838 114.416L31.6818 113.121L36.8699 115.894L36.9652 115.832L36.5552 109.964L38.5532 108.669L38.9675 117.094L41.3278 120.737L39.5635 121.88L37.2032 118.237L29.6838 114.416ZM47.9808 116.63C47.2655 117.093 46.5436 117.337 45.8152 117.362C45.0868 117.387 44.3946 117.211 43.7387 116.832C43.086 116.452 42.5145 115.883 42.0243 115.127C41.5341 114.37 41.2478 113.615 41.1652 112.86C41.0858 112.104 41.2064 111.398 41.5271 110.744C41.8477 110.089 42.3657 109.53 43.0809 109.067C43.7962 108.603 44.5181 108.359 45.2465 108.334C45.9749 108.309 46.6665 108.488 47.3213 108.872C47.9793 109.253 48.5534 109.822 49.0436 110.579C49.5337 111.336 49.8175 112.091 49.8948 112.844C49.9753 113.595 49.8553 114.298 49.5346 114.953C49.214 115.607 48.696 116.166 47.9808 116.63ZM47.0944 115.241C47.4822 114.989 47.7375 114.673 47.8602 114.291C47.9808 113.906 47.9873 113.491 47.8796 113.046C47.7752 112.599 47.5788 112.153 47.2904 111.708C47 111.26 46.6723 110.897 46.3071 110.619C45.9431 110.336 45.5607 110.17 45.16 110.123C44.7593 110.076 44.365 110.178 43.9771 110.429C43.5798 110.687 43.3192 111.009 43.1954 111.396C43.0748 111.781 43.0677 112.199 43.1742 112.649C43.2819 113.093 43.4809 113.54 43.7713 113.988C44.0596 114.433 44.3848 114.796 44.7467 115.076C45.1119 115.354 45.4948 115.516 45.8955 115.564C46.2974 115.606 46.697 115.498 47.0944 115.241ZM55.5354 107.158L52.7858 102.914L54.512 101.796L59.2574 109.121L57.5836 110.205L56.7402 108.903L56.6639 108.953C56.7643 109.47 56.7098 109.981 56.5004 110.487C56.2941 110.991 55.916 111.421 55.3661 111.777C54.886 112.088 54.3926 112.256 53.8859 112.282C53.3803 112.303 52.8913 112.175 52.4189 111.899C51.9446 111.62 51.5179 111.188 51.1389 110.603L48.1175 105.939L49.8436 104.821L52.6921 109.217C52.9928 109.681 53.3589 109.968 53.7903 110.076C54.2218 110.185 54.6441 110.105 55.0574 109.838C55.3117 109.673 55.5179 109.451 55.676 109.173C55.8341 108.894 55.9102 108.583 55.9042 108.24C55.8993 107.891 55.7764 107.53 55.5354 107.158ZM61.0324 107.97L56.2871 100.646L57.9608 99.5617L58.7517 100.782L58.828 100.733C58.6876 100.224 58.7054 99.7495 58.8813 99.3106C59.0584 98.8664 59.3568 98.5083 59.7764 98.2365C59.8718 98.1747 59.9814 98.1104 60.1052 98.0438C60.2301 97.9719 60.3374 97.9181 60.4272 97.8825L61.456 99.4704C61.3664 99.4924 61.2359 99.5453 61.0646 99.6292C60.8944 99.7079 60.7362 99.7946 60.59 99.8893C60.2753 100.093 60.0366 100.345 59.874 100.644C59.7126 100.938 59.6376 101.251 59.649 101.582C59.6604 101.913 59.767 102.235 59.9689 102.546L62.7586 106.852L61.0324 107.97ZM73.9303 90.4271L72.1469 91.5826C71.9066 91.3231 71.6449 91.1247 71.362 90.9876C71.077 90.8473 70.7813 90.7635 70.4749 90.7364C70.1684 90.7093 69.8591 90.7404 69.547 90.8298C69.2359 90.914 68.931 91.0529 68.6322 91.2465C68.1013 91.5905 67.7173 92.0288 67.4802 92.5615C67.2411 93.0911 67.1712 93.6869 67.2708 94.3491C67.3683 95.0081 67.6549 95.7048 68.1306 96.4391C68.6147 97.1862 69.1385 97.7404 69.7022 98.1019C70.2669 98.4581 70.8372 98.6348 71.413 98.6318C71.99 98.6236 72.5423 98.4486 73.07 98.1067C73.3625 97.9172 73.6111 97.7019 73.816 97.4608C74.022 97.2145 74.1773 96.9492 74.2819 96.6648C74.3897 96.3783 74.4414 96.0785 74.4371 95.7654C74.436 95.4501 74.3698 95.132 74.2385 94.8109L76.0281 93.6649C76.262 94.1723 76.3995 94.7016 76.4406 95.2526C76.4849 95.8017 76.43 96.3473 76.2758 96.8895C76.1195 97.4286 75.8596 97.94 75.496 98.4238C75.1304 98.9044 74.6567 99.3331 74.0749 99.71C73.2166 100.266 72.3217 100.564 71.3903 100.603C70.4589 100.642 69.5563 100.412 68.6824 99.9135C67.8085 99.4145 67.0317 98.6405 66.352 97.5915C65.6703 96.5392 65.2829 95.5129 65.1899 94.5125C65.0949 93.5089 65.2556 92.5901 65.6721 91.7561C66.0886 90.9221 66.7228 90.2291 67.5748 89.6771C68.1184 89.3249 68.6733 89.0737 69.2394 88.9236C69.8056 88.7734 70.3673 88.7277 70.9244 88.7865C71.4795 88.8421 72.0126 89.0067 72.5238 89.2803C73.0362 89.5486 73.505 89.9309 73.9303 90.4271ZM81.8699 94.6801C81.4058 94.9808 80.9342 95.169 80.4552 95.2446C79.9773 95.3151 79.5241 95.2566 79.0958 95.0692C78.6707 94.8798 78.3026 94.545 77.9916 94.065C77.7239 93.6517 77.5788 93.2606 77.5563 92.8915C77.5338 92.5224 77.602 92.1713 77.7608 91.8382C77.9196 91.5052 78.1376 91.1902 78.4146 90.8934C78.6928 90.5913 78.9976 90.3058 79.3289 90.037C79.7292 89.7144 80.0516 89.4492 80.296 89.2412C80.5383 89.03 80.6951 88.8472 80.7665 88.6926C80.839 88.5328 80.8217 88.3702 80.7146 88.2049L80.696 88.1763C80.4633 87.8171 80.1766 87.6079 79.8359 87.5488C79.4952 87.4897 79.1246 87.5899 78.724 87.8494C78.3012 88.1234 78.0256 88.4329 77.8971 88.7779C77.7717 89.1209 77.7475 89.4457 77.8244 89.7525L76.0644 90.5678C75.9032 90.0404 75.872 89.5325 75.9709 89.0442C76.0677 88.5527 76.2791 88.0953 76.6051 87.6719C76.929 87.2454 77.3469 86.8664 77.8587 86.5348C78.2116 86.3061 78.5897 86.1199 78.9929 85.976C79.3961 85.8321 79.8042 85.7618 80.217 85.7651C80.6279 85.7652 81.0257 85.8708 81.4106 86.0818C81.7988 86.2907 82.1504 86.6383 82.4655 87.1247L85.6414 92.0267L83.982 93.1018L83.3301 92.0957L83.2729 92.1328C83.2998 92.4042 83.2756 92.6907 83.2002 92.9923C83.1259 93.2887 82.9807 93.5836 82.7646 93.877C82.5496 94.1652 82.2514 94.4329 81.8699 94.6801ZM81.4964 93.1212C81.8429 92.8968 82.099 92.6338 82.2648 92.3323C82.4285 92.0277 82.5045 91.7166 82.4929 91.3992C82.4845 91.0796 82.3928 90.7848 82.2177 90.5146L81.6585 89.6515C81.6333 89.731 81.5679 89.832 81.4623 89.9546C81.3598 90.0752 81.2384 90.2012 81.098 90.3328C80.9576 90.4644 80.8167 90.5918 80.6753 90.715C80.534 90.8382 80.4112 90.9448 80.3071 91.0348C80.0723 91.2366 79.8789 91.4431 79.7269 91.6544C79.5749 91.8657 79.4865 92.081 79.4615 92.3003C79.4345 92.5163 79.4931 92.7356 79.6373 92.9582C79.8433 93.2761 80.1148 93.4409 80.4519 93.4527C80.789 93.4645 81.1372 93.354 81.4964 93.1212ZM86.2892 81.2082L87.1543 82.5434L82.9437 85.2713L82.0786 83.9361L86.2892 81.2082ZM81.9813 81.5078L83.7075 80.3895L88.1624 87.2656C88.3128 87.4977 88.4631 87.6531 88.6133 87.7317C88.7647 87.8052 88.9136 87.826 89.0601 87.7943C89.2065 87.7626 89.3513 87.7004 89.4944 87.6078C89.6024 87.5377 89.6958 87.4659 89.7746 87.3924C89.8565 87.3168 89.9171 87.2571 89.9566 87.2135L91.1218 88.3746C91.0502 88.4661 90.9409 88.5865 90.7939 88.7359C90.6502 88.8832 90.4579 89.0393 90.2173 89.2043C89.7932 89.4971 89.3615 89.6842 88.9223 89.7657C88.4811 89.8439 88.0599 89.7964 87.6587 89.623C87.2607 89.4476 86.915 89.13 86.6216 88.6701L81.9813 81.5078ZM90.0898 77.385L89.129 75.902L96.9207 70.8539L97.8815 72.3369L94.8631 74.2925L100.229 82.5754L98.4746 83.7123L93.1083 75.4294L90.0898 77.385ZM106.899 78.4574C106.184 78.9208 105.462 79.165 104.733 79.1902C104.005 79.2153 103.313 79.0386 102.657 78.6602C102.004 78.2797 101.433 77.7111 100.943 76.9545C100.452 76.1979 100.166 75.4424 100.083 74.688C100.004 73.9316 100.125 73.226 100.445 72.5715C100.766 71.9169 101.284 71.3579 101.999 70.8945C102.714 70.4311 103.436 70.1869 104.165 70.1617C104.893 70.1366 105.585 70.3159 106.24 70.6996C106.898 71.0812 107.472 71.6503 107.962 72.4069C108.452 73.1635 108.736 73.9184 108.813 74.6717C108.894 75.423 108.774 76.1258 108.453 76.7804C108.132 77.435 107.614 77.9939 106.899 78.4574ZM106.013 77.0683C106.4 76.817 106.656 76.5005 106.778 76.1186C106.899 75.7335 106.906 75.3186 106.798 74.8738C106.693 74.427 106.497 73.981 106.209 73.5359C105.918 73.0877 105.591 72.7246 105.225 72.4467C104.861 72.1635 104.479 71.9982 104.078 71.9509C103.678 71.9036 103.283 72.0056 102.895 72.2569C102.498 72.5144 102.237 72.8367 102.114 73.2238C101.993 73.6088 101.986 74.0264 102.092 74.4764C102.2 74.9212 102.399 75.3677 102.69 75.8159C102.978 76.261 103.303 76.6235 103.665 76.9036C104.03 77.1815 104.413 77.3441 104.814 77.3914C105.216 77.4335 105.615 77.3258 106.013 77.0683ZM43.0756 142.244L36.7485 132.478L40.4107 130.105C41.1609 129.619 41.8748 129.341 42.5523 129.273C43.233 129.202 43.8561 129.317 44.4216 129.619C44.9882 129.915 45.4734 130.375 45.8771 130.998C46.2828 131.624 46.5015 132.254 46.5331 132.888C46.5658 133.517 46.4061 134.124 46.0538 134.708C45.6994 135.29 45.1471 135.824 44.3969 136.31L41.7885 138L40.837 136.531L43.2069 134.996C43.6456 134.712 43.9657 134.418 44.1672 134.116C44.3666 133.811 44.4569 133.498 44.438 133.176C44.4202 132.849 44.2991 132.512 44.0746 132.166C43.8501 131.819 43.5902 131.568 43.2949 131.412C42.9976 131.252 42.6678 131.199 42.3057 131.254C41.9415 131.304 41.5385 131.473 41.0966 131.759L39.4753 132.81L44.8447 141.097L43.0756 142.244ZM45.2537 134.55L50.5383 137.409L48.5641 138.688L43.3224 135.801L45.2537 134.55ZM54.9631 134.745C54.2288 135.221 53.4957 135.479 52.7639 135.52C52.0333 135.555 51.3426 135.385 50.6919 135.007C50.0392 134.627 49.4647 134.053 48.9683 133.287C48.4802 132.534 48.1948 131.78 48.1123 131.026C48.0308 130.266 48.1462 129.559 48.4584 128.906C48.7686 128.249 49.2733 127.694 49.9727 127.241C50.4241 126.948 50.8975 126.745 51.3928 126.632C51.8892 126.514 52.3894 126.506 52.8934 126.608C53.4006 126.708 53.8946 126.934 54.3754 127.286C54.8542 127.635 55.3015 128.13 55.7176 128.772L56.0605 129.302L50.057 133.191L49.3032 132.028L53.652 129.21C53.4346 128.882 53.1726 128.634 52.8659 128.467C52.5571 128.297 52.2288 128.219 51.8808 128.232C51.5361 128.243 51.1984 128.356 50.8678 128.57C50.5149 128.799 50.2606 129.085 50.1047 129.43C49.9469 129.771 49.8828 130.129 49.9126 130.502C49.9435 130.87 50.0634 131.219 50.2724 131.549L50.9304 132.564C51.2064 132.99 51.5212 133.306 51.8746 133.51C52.2261 133.711 52.5942 133.802 52.979 133.783C53.3617 133.76 53.7406 133.628 54.1158 133.385C54.3669 133.222 54.5715 133.04 54.7297 132.838C54.8858 132.633 54.9932 132.412 55.052 132.176C55.1108 131.939 55.1114 131.693 55.0538 131.437L56.783 130.574C56.9572 131.065 57.0043 131.563 56.9241 132.066C56.8451 132.564 56.6413 133.044 56.3127 133.505C55.982 133.963 55.5322 134.376 54.9631 134.745ZM61.7911 130.328C61.327 130.629 60.8554 130.817 60.3764 130.893C59.8984 130.963 59.4453 130.904 59.017 130.717C58.5919 130.528 58.2238 130.193 57.9128 129.713C57.6451 129.3 57.4999 128.908 57.4775 128.539C57.455 128.17 57.5232 127.819 57.682 127.486C57.8408 127.153 58.0587 126.838 58.3358 126.541C58.614 126.239 58.9187 125.954 59.2501 125.685C59.6504 125.362 59.9728 125.097 60.2171 124.889C60.4595 124.678 60.6163 124.495 60.6877 124.34C60.7602 124.181 60.7429 124.018 60.6358 123.853L60.6172 123.824C60.3845 123.465 60.0978 123.256 59.7571 123.197C59.4164 123.138 59.0458 123.238 58.6452 123.497C58.2224 123.771 57.9468 124.081 57.8183 124.426C57.6929 124.769 57.6687 125.094 57.7456 125.4L55.9855 126.216C55.8244 125.688 55.7932 125.18 55.8921 124.692C55.9889 124.201 56.2003 123.743 56.5263 123.32C56.8502 122.893 57.2681 122.514 57.7799 122.183C58.1328 121.954 58.5108 121.768 58.9141 121.624C59.3173 121.48 59.7254 121.41 60.1382 121.413C60.549 121.413 60.9469 121.519 61.3318 121.73C61.7199 121.939 62.0716 122.286 62.3867 122.773L65.5626 127.675L63.9032 128.75L63.2513 127.744L63.1941 127.781C63.221 128.052 63.1967 128.339 63.1213 128.64C63.0471 128.937 62.9019 129.231 62.6858 129.525C62.4708 129.813 62.1726 130.081 61.7911 130.328ZM61.4176 128.769C61.7641 128.545 62.0202 128.282 62.186 127.98C62.3497 127.676 62.4257 127.364 62.4141 127.047C62.4057 126.728 62.314 126.433 62.1389 126.162L61.5797 125.299C61.5545 125.379 61.4891 125.48 61.3835 125.603C61.281 125.723 61.1596 125.849 61.0192 125.981C60.8788 126.112 60.7379 126.24 60.5965 126.363C60.4552 126.486 60.3324 126.593 60.2283 126.683C59.9934 126.884 59.8 127.091 59.6481 127.302C59.4961 127.514 59.4077 127.729 59.3827 127.948C59.3557 128.164 59.4143 128.384 59.5585 128.606C59.7644 128.924 60.036 129.089 60.3731 129.101C60.7102 129.112 61.0584 129.002 61.4176 128.769ZM70.0998 124.918C69.5244 125.291 68.9136 125.476 68.2675 125.475C67.6213 125.474 66.9841 125.278 66.3557 124.886C65.7272 124.494 65.1525 123.896 64.6314 123.092C64.1042 122.278 63.7928 121.505 63.6973 120.773C63.603 120.035 63.692 119.375 63.9644 118.792C64.2348 118.206 64.6513 117.731 65.214 117.366C65.6432 117.088 66.0434 116.933 66.4147 116.9C66.784 116.864 67.1156 116.895 67.4095 116.993C67.7014 117.088 67.9495 117.196 68.1539 117.317L68.2254 117.27L65.8589 113.618L67.5899 112.496L73.917 122.262L72.2194 123.362L71.4718 122.208L71.3669 122.276C71.3932 122.511 71.387 122.784 71.3483 123.093C71.3075 123.4 71.1941 123.712 71.0082 124.031C70.8222 124.35 70.5194 124.646 70.0998 124.918ZM69.6638 123.19C70.0294 122.953 70.2771 122.652 70.4069 122.288C70.5347 121.921 70.55 121.516 70.4528 121.074C70.3556 120.631 70.1536 120.173 69.8467 119.7C69.5399 119.226 69.2064 118.857 68.8463 118.594C68.4894 118.329 68.1194 118.183 67.7363 118.156C67.3563 118.127 66.9803 118.233 66.6084 118.474C66.2237 118.723 65.9675 119.031 65.8398 119.398C65.7121 119.765 65.6973 120.167 65.7956 120.605C65.8939 121.042 66.0903 121.488 66.3848 121.942C66.6814 122.4 67.0112 122.767 67.3743 123.041C67.7385 123.311 68.1163 123.466 68.5077 123.505C68.9001 123.54 69.2855 123.435 69.6638 123.19ZM79.1635 118.863L72.8364 109.097L74.6055 107.951L79.9718 116.234L84.273 113.447L85.2338 114.93L79.1635 118.863ZM86.693 113.985L81.9476 106.66L83.6738 105.542L88.4192 112.866L86.693 113.985ZM82.142 105.058C81.8686 105.236 81.5746 105.297 81.2602 105.244C80.9436 105.187 80.7019 105.03 80.5351 104.773C80.3662 104.512 80.3216 104.227 80.4013 103.918C80.4789 103.606 80.6544 103.361 80.9278 103.184C81.2044 103.005 81.4994 102.945 81.8128 103.004C82.1273 103.057 82.369 103.214 82.5378 103.475C82.7047 103.732 82.7493 104.017 82.6716 104.329C82.5951 104.636 82.4186 104.879 82.142 105.058ZM90.2787 108.398L88.9239 106.318L89.2005 106.138L89.9265 101.491L91.9436 100.184L91.0414 105.887L90.6837 106.118L90.2787 108.398ZM90.1942 111.716L83.8671 101.95L85.5933 100.832L91.9204 110.598L90.1942 111.716ZM94.7911 108.738L90.2473 106.95L90.623 104.98L96.8558 107.4L94.7911 108.738ZM100.873 105.001C100.139 105.476 99.4056 105.735 98.6738 105.776C97.9431 105.811 97.2524 105.64 96.6018 105.263C95.949 104.883 95.3745 104.309 94.8781 103.543C94.39 102.79 94.1046 102.036 94.0221 101.281C93.9406 100.522 94.056 99.8151 94.3682 99.1614C94.6784 98.5046 95.1832 97.9497 95.8825 97.4966C96.334 97.2041 96.8073 97.0012 97.3026 96.888C97.799 96.7694 98.2992 96.7613 98.8033 96.8635C99.3105 96.9637 99.8045 97.1897 100.285 97.5417C100.764 97.8905 101.211 98.386 101.627 99.0281L101.97 99.5574L95.9668 103.447L95.213 102.284L99.5619 99.466C99.3445 99.1374 99.0824 98.8897 98.7757 98.7228C98.467 98.5528 98.1386 98.4744 97.7907 98.4877C97.4459 98.4989 97.1082 98.6116 96.7776 98.8258C96.4247 99.0545 96.1704 99.3411 96.0146 99.6858C95.8567 100.027 95.7926 100.385 95.8224 100.758C95.8533 101.126 95.9732 101.475 96.1822 101.805L96.8403 102.82C97.1162 103.246 97.431 103.561 97.7845 103.766C98.1359 103.967 98.504 104.058 98.8888 104.039C99.2715 104.016 99.6505 103.884 100.026 103.641C100.277 103.478 100.481 103.296 100.64 103.094C100.796 102.889 100.903 102.668 100.962 102.431C101.021 102.195 101.021 101.948 100.964 101.692L102.693 100.829C102.867 101.321 102.914 101.819 102.834 102.322C102.755 102.82 102.551 103.3 102.223 103.761C101.892 104.219 101.442 104.632 100.873 105.001ZM108.734 85.8397L110.503 84.6935L114.636 91.0738C115.089 91.7732 115.323 92.4954 115.336 93.2405C115.353 93.9835 115.16 94.697 114.76 95.381C114.357 96.0618 113.758 96.6596 112.963 97.1745C112.165 97.6915 111.373 97.9947 110.587 98.0842C109.799 98.1706 109.069 98.0543 108.398 97.7356C107.726 97.4168 107.164 96.9078 106.711 96.2084L102.577 89.8282L104.347 88.682L108.384 94.9144C108.648 95.3213 108.972 95.626 109.356 95.8286C109.743 96.0291 110.159 96.1139 110.604 96.083C111.047 96.0488 111.492 95.8866 111.94 95.5962C112.389 95.3058 112.719 94.9655 112.931 94.5753C113.144 94.1799 113.237 93.7656 113.209 93.3324C113.181 92.8991 113.035 92.479 112.771 92.0721L108.734 85.8397ZM120.974 84.1241L119.512 85.3152C119.364 85.1851 119.19 85.0862 118.988 85.0184C118.789 84.9485 118.57 84.9304 118.33 84.9641C118.09 84.9977 117.836 85.101 117.569 85.274C117.21 85.5067 116.959 85.7803 116.815 86.0946C116.674 86.4069 116.686 86.6861 116.849 86.932C116.984 87.147 117.174 87.2698 117.42 87.3003C117.668 87.3288 118.007 87.2655 118.434 87.1103L119.856 86.5679C120.646 86.2684 121.315 86.1715 121.862 86.2775C122.412 86.3814 122.859 86.6945 123.202 87.217C123.497 87.68 123.626 88.1745 123.587 88.7003C123.55 89.221 123.36 89.7323 123.017 90.2342C122.674 90.7361 122.198 91.1848 121.587 91.5802C120.691 92.161 119.848 92.441 119.058 92.4201C118.266 92.3961 117.599 92.0811 117.058 91.4751L118.636 90.2224C118.926 90.5036 119.25 90.6481 119.607 90.6559C119.964 90.6638 120.342 90.539 120.739 90.2815C121.149 90.0158 121.424 89.7184 121.562 89.3893C121.704 89.0581 121.695 88.7685 121.534 88.5205C121.399 88.3107 121.205 88.19 120.955 88.1583C120.707 88.1246 120.391 88.1804 120.007 88.3256L118.587 88.8727C117.79 89.1817 117.111 89.272 116.549 89.1439C115.986 89.0125 115.533 88.6787 115.19 88.1426C114.894 87.6932 114.763 87.2229 114.797 86.7317C114.832 86.2352 115.013 85.7521 115.341 85.2826C115.67 84.8078 116.126 84.3809 116.711 84.002C117.57 83.4459 118.364 83.191 119.093 83.2373C119.826 83.2816 120.453 83.5772 120.974 84.1241Z" fill="black"/>
</g>
<defs>
<clipPath id="clip0_10_3">
<rect width="389" height="559" fill="white"/>
</clipPath>
</defs>
</svg>
